# xmcd
#
# Track frame offsets: 
#        150
#        12873
#        24550
#        34805
#        45560
#        56400
#        66515
#        81098
#        91293
#        102595
#        116670
#        128508
#        136218
#        145380
#        156945
#        167073
#        176995
#        187055
#
# Disc length: 2607 seconds
#
# Revision: 8
# Processed by: cddbd v1.5.2PL0 Copyright (c) Steve Scherf et al.
# Submitted via: ExactAudioCopy v1.0b1
#
DISCID=fd0a2d12
DTITLE=Various Artist - Hillbilly Holiday
DYEAR=1988
DGENRE=Country
TTITLE0=Bill Monroe - Christmas Time's A-Coming (mono)
TTITLE1=Tex Ritter - Christmas Carols By The Old Corral (mono)
TTITLE2=Brenda Lee - I'm Gonna Lasso Santa Claus (mono)
TTITLE3=Ernest Tubb - I'll Be Walkin' The Floor This Christmas (mono)
TTITLE4=Hank Snow - Reindeer Boogie (mono)
TTITLE5=Hank Thompson - Gonna Wrap My Heart In Ribbons (stereo)
TTITLE6=Bill Anderson - Po' Folks Christmas (stereo)
TTITLE7=Buck Owens - Santa Looked A Lot Like Daddy (stereo)
TTITLE8=Willie Nelson - Pretty Paper (stereo)
TTITLE9=The Louvin Brothers - It Came Upon A Midnight Clear (stereo)
TTITLE10=George Jones - My Mom And Santa Claus (stereo)
TTITLE11=Marty Robbins - One Of You (In Every Size) (stereo)
TTITLE12=Loretta Lynn - To Heck With Ole Santa Claus (stereo)
TTITLE13=Commander Cody - Daddy's Drinking Up Our Christmas (stereo)
TTITLE14=Faron Young - I'm Gonna Tell Santa on You (mono)
TTITLE15=Johnny Horton - They Shined Up Rudolph's Nose (mono)
TTITLE16=The Davis Sisters - Christmas Boogie (mono)
TTITLE17=Buck Owens - Christmas Time's A-Comin' (stereo)
EXTD=YEAR: 1988
EXTT0=Bill Monroe\n
EXTT1=Tex Ritter\n
EXTT2=Brenda Lee\n
EXTT3=Ernest Tubb and His Texas Troubadours\n
EXTT4=Hank Snow\n
EXTT5=Hank Thompson\n
EXTT6=Bill Anderson\n
EXTT7=Buck Owens\n
EXTT8=Willie Nelson\n
EXTT9=The louvin Brothers\n
EXTT10=George Jones\n
EXTT11=Marty Robbins\n
EXTT12=Loretta Lynn\n
EXTT13=Commander Cody\n
EXTT14=Faron Young\n
EXTT15=Johnny Horton\n
EXTT16=The Davis Sisters\n
EXTT17=Buck Owens\n
PLAYORDER=
